<svg aria-hidden="true" style="position: absolute; width: 0; height: 0; overflow: hidden;" version="1.1" xmlns="http://www.w3.org/2000/svg" xmlns:xlink="http://www.w3.org/1999/xlink">
<defs>
<symbol id="odigo-Logo" viewBox="0 0 85 32">
<path   d="M84.086 12.475c-0.378-1.206-0.905-2.298-1.646-3.25s-1.646-1.641-2.715-2.159c-0.304-0.164-0.675-0.328-0.987-0.41 0 0-0.115-0.066-0.222-0.066-0.049 0-0.107 0-0.165-0.057-0.041 0-0.099 0-0.099-0.057l-0.782-0.164c-0.576-0.098-1.316-0.148-2.172-0.098-1.267 0.057-2.386 0.328-3.373 0.788-1.070 0.525-1.975 1.264-2.715 2.15-0.74 0.952-1.267 1.994-1.646 3.258-0.362 1.198-0.527 2.561-0.527 3.923 0 1.42 0.165 2.733 0.535 3.939 0.378 1.206 0.963 2.298 1.646 3.201 0.535 0.632 1.111 1.149 1.81 1.625 0.313 0.213 0.576 0.369 0.905 0.525h0.041c0 0 0.049 0 0.049 0.049 0.035 0 0.052 0.016 0.067 0.032 0.013 0.013 0.025 0.026 0.048 0.026 0.535 0.263 1.119 0.41 1.753 0.525 1.851 0.361 3.439 0.107 3.439 0.107 0.847-0.107 1.646-0.369 2.386-0.689 1.111-0.525 2.008-1.256 2.756-2.15 0.74-0.886 1.267-1.994 1.646-3.201 0.362-1.206 0.527-2.52 0.527-3.939 0-1.412-0.214-2.725-0.535-3.939l-0.025 0.033zM71.687 13.624c0.214-0.821 0.477-1.617 0.847-2.249 0.37-0.624 0.847-1.149 1.374-1.51 0.535-0.369 1.168-0.575 1.851-0.575 0.691 0 1.275 0.148 1.81 0.517 0.527 0.361 0.946 0.821 1.316 1.412 0.37 0.632 0.642 1.313 0.847 2.15 0.222 0.837 0.329 1.682 0.329 2.626v0.312c0 0.944-0.107 1.888-0.263 2.725-0.214 0.845-0.477 1.576-0.847 2.216-0.37 0.624-0.847 1.092-1.382 1.461-0.527 0.369-1.152 0.525-1.851 0.525-0.691 0-1.316-0.164-1.851-0.525-0.535-0.369-1.012-0.837-1.382-1.477-0.378-0.624-0.642-1.354-0.856-2.2-0.206-0.837-0.263-1.781-0.263-2.725 0.058-0.903 0.165-1.838 0.329-2.675l-0.008-0.008zM60.077 26.542l-2.057 2.355-0.214 0.213 0.214 2.889h3.176l3.34-3.726v-11.851l-0.099-0.903-4.361 2.249v8.773z"></path>
<path   d="M33.32 5.39l-2.078-2.289-0.274-0.195 0.216-2.906 3.2 0.049 3.441 3.685v11.99l-0.1 0.666-4.406-2.273v-8.727zM62.813 8.613c0.748 0.942 1.28 2.021 1.663 3.215l0.017-0.033c0.374 1.201 0.54 2.5 0.54 3.897 0 1.404-0.166 2.703-0.532 3.897-0.382 1.193-0.914 2.289-1.662 3.166-0.748 0.885-1.663 1.607-2.785 2.127-0.748 0.317-1.554 0.576-2.411 0.682 0 0-1.604 0.252-3.475-0.106-0.64-0.114-1.23-0.26-1.762-0.52-0.030 0-0.045-0.015-0.059-0.030-0.013-0.014-0.025-0.027-0.049-0.027 0-0.049-0.058-0.049-0.058-0.049h-0.042c-0.333-0.154-0.599-0.308-0.914-0.52-0.698-0.471-1.288-0.982-1.829-1.607-0.69-0.893-1.28-1.973-1.662-3.166-0.366-1.193-0.532-2.492-0.532-3.897 0-1.348 0.158-2.695 0.524-3.88 0.382-1.25 0.914-2.281 1.663-3.223 0.748-0.877 1.662-1.607 2.743-2.127 0.997-0.455 2.128-0.723 3.408-0.779 0.865-0.049 1.613 0 2.194 0.097l0.79 0.162c0 0.057 0.058 0.057 0.1 0.057 0.067 0.057 0.116 0.057 0.166 0.057 0.108 0 0.224 0.065 0.224 0.065 0.316 0.081 0.69 0.244 0.997 0.406 1.081 0.511 1.995 1.193 2.743 2.135zM52.855 10.74c-0.374 0.625-0.64 1.413-0.848 2.224l0.008 0.008c-0.213 0.818-0.273 1.73-0.33 2.612v0l-0.002 0.034c0 0.934 0.050 1.867 0.266 2.695 0.216 0.836 0.482 1.559 0.856 2.176 0.374 0.633 0.856 1.096 1.388 1.461 0.54 0.357 1.18 0.52 1.887 0.52 0.69 0 1.338-0.154 1.87-0.52s1.014-0.828 1.38-1.445c0.374-0.633 0.648-1.356 0.856-2.192 0.166-0.828 0.283-1.762 0.283-2.695v-0.308c0-0.934-0.116-1.77-0.333-2.598s-0.482-1.502-0.856-2.127c-0.374-0.585-0.806-1.039-1.33-1.396-0.54-0.365-1.131-0.511-1.829-0.511-0.707 0-1.338 0.203-1.87 0.568-0.54 0.357-1.022 0.877-1.396 1.494zM40.22 5.715h4.489v20.092h-4.489v-20.092z"></path>
<path   d="M42.33 1.032c1.136 0 2.058 0.927 2.058 2.069s-0.922 2.069-2.058 2.069c-1.136 0.050-2.058-0.869-2.058-2.069 0-1.142 0.922-2.069 2.058-2.069zM15.407 9.467c-0.741-0.96-1.646-1.656-2.716-2.177-0.305-0.166-0.675-0.331-0.988-0.414 0 0-0.115-0.066-0.222-0.066-0.049 0-0.099 0-0.165-0.058-0.041 0-0.099 0-0.099-0.058l-0.782-0.166c-0.576-0.099-1.317-0.149-2.173-0.099-1.268 0.058-2.387 0.331-3.374 0.795-1.070 0.53-1.975 1.275-2.716 2.169-0.741 0.96-1.268 2.011-1.646 3.286-0.362 1.209-0.527 2.583-0.527 3.957 0 1.432 0.165 2.756 0.535 3.973 0.379 1.266 0.905 2.318 1.646 3.228 0.535 0.637 1.119 1.159 1.811 1.639 0.313 0.215 0.576 0.373 0.905 0.53h0.041c0 0 0.058 0 0.058 0.050 0.049 0.058 0.049 0.058 0.099 0.058 0.535 0.265 1.119 0.414 1.753 0.53 1.852 0.364 3.44 0.108 3.44 0.108 0.848-0.108 1.646-0.373 2.387-0.695 1.111-0.53 2.016-1.266 2.757-2.169 0.741-0.894 1.267-2.011 1.646-3.228 0.362-1.217 0.527-2.541 0.527-3.973 0-1.424-0.165-2.748-0.535-3.973l-0.016 0.033c-0.379-1.217-0.905-2.318-1.646-3.278zM37.144 12.745c-0.379-1.217-0.905-2.318-1.646-3.278s-1.646-1.656-2.716-2.177c-0.305-0.166-0.675-0.331-0.988-0.414 0 0-0.115-0.066-0.222-0.066-0.049 0-0.107 0-0.165-0.058-0.049 0-0.099 0-0.099-0.058l-0.79-0.166c-0.576-0.099-1.317-0.149-2.165-0.099-1.267 0.058-2.387 0.331-3.374 0.795-1.070 0.53-1.975 1.275-2.716 2.169-0.741 0.96-1.267 2.011-1.646 3.286-0.362 1.209-0.527 2.583-0.527 3.957 0 1.432 0.165 2.756 0.535 3.973 0.379 1.217 0.955 2.318 1.646 3.228 0.535 0.637 1.111 1.159 1.811 1.639 0.313 0.215 0.946 0.53 0.946 0.53s0.049 0 0.049 0.050c0.035 0 0.052 0.017 0.067 0.032 0.013 0.013 0.026 0.026 0.048 0.026 0.535 0.265 1.111 0.414 1.753 0.53 1.852 0.364 3.44 0.108 3.44 0.108 0.848-0.108 1.646-0.373 2.387-0.695 1.111-0.53 2.008-1.266 2.757-2.169 0.741-0.894 1.267-2.011 1.646-3.228 0.362-1.217 0.519-2.541 0.519-3.973 0-1.424-0.206-2.748-0.527-3.973l-0.025 0.033zM24.741 13.904c0.214-0.828 0.477-1.631 0.848-2.268 0.37-0.629 0.848-1.159 1.374-1.523 0.535-0.373 1.169-0.579 1.852-0.579 0.691 0 1.276 0.149 1.811 0.521 0.527 0.364 0.947 0.828 1.317 1.424 0.37 0.637 0.634 1.325 0.848 2.169 0.222 0.844 0.329 1.697 0.329 2.649v0.315c0 0.952-0.107 1.904-0.263 2.748-0.214 0.853-0.477 1.589-0.848 2.235-0.37 0.629-0.848 1.101-1.383 1.473-0.527 0.373-1.152 0.53-1.852 0.53-0.691 0-1.317-0.166-1.852-0.53-0.535-0.372-1.012-0.844-1.383-1.49-0.379-0.629-0.642-1.366-0.856-2.218-0.206-0.844-0.263-1.796-0.263-2.748 0.058-0.911 0.165-1.854 0.329-2.699l-0.008-0.008zM4.708 13.904c0.206-0.828 0.469-1.631 0.84-2.268 0.37-0.629 0.848-1.159 1.383-1.523 0.527-0.373 1.152-0.579 1.852-0.579 0.691 0 1.276 0.149 1.811 0.521 0.519 0.364 0.947 0.828 1.317 1.424 0.37 0.637 0.634 1.325 0.848 2.169s0.329 1.697 0.329 2.649l-0.016 0.315c0 0.952-0.099 1.904-0.263 2.748-0.206 0.853-0.477 1.589-0.848 2.235-0.362 0.629-0.84 1.101-1.366 1.473s-1.169 0.53-1.852 0.53c-0.7 0-1.333-0.166-1.868-0.53-0.527-0.372-1.004-0.844-1.375-1.49-0.329-0.521-0.576-1.258-0.798-2.152-0.214-0.853-0.272-1.821-0.272-2.765 0-0.952 0.058-1.904 0.263-2.748l0.016-0.008z"></path>
</symbol>
</defs>
</svg>
